<svg width="314" height="137" viewBox="0 0 314 137" fill="none" xmlns="http://www.w3.org/2000/svg">
<path d="M49.0816 87.6001C54.0016 82.3201 57.8416 74.4001 57.8416 67.0801C57.8416 56.7601 50.5216 47.4001 32.1616 47.4001C30.3616 47.4001 27.2416 47.5201 24.6016 47.7601V87.6001H49.0816ZM0.00156254 136.08V34.0801H24.6016V44.8801L53.0416 31.3201C67.6816 31.6801 80.4016 41.5201 80.2816 56.5201C80.1616 71.4001 65.7616 83.5201 51.2416 89.4001L83.8816 118.08H46.6816L24.6016 90.0001V136.08H0.00156254ZM93.5172 118.08V34.0801H118.117V118.08H93.5172ZM105.757 26.4001L87.7572 13.5601L105.037 7.48634e-05L123.037 12.8401L105.757 26.4001ZM155.524 118.08L127.684 34.0801H154.444L181.444 115.44C189.244 102.84 195.844 82.8001 195.844 64.9201C195.844 52.9201 192.964 41.6401 185.404 34.0801H214.804C218.044 38.2801 219.484 43.4401 219.484 49.2001C219.484 71.4001 198.244 102.12 182.644 118.08H155.524ZM284.654 118.08L271.694 93.7201L238.814 118.08H214.094C214.094 100.44 222.014 78.0001 253.814 59.8801L240.134 34.0801H268.934L313.454 118.08H284.654ZM238.814 114.6L266.294 83.5201L255.254 62.5201C243.134 78.2401 239.294 94.3201 238.814 114.6Z" fill="white"/>
</svg>
